<svg xmlns="http://www.w3.org/2000/svg" width="24" height="24" viewBox="0 0 24 24" fill="none" stroke="currentColor" stroke-width="2" stroke-linecap="round" stroke-linejoin="round">
  <!-- Heating unit body -->
  <rect x="5" y="8" width="14" height="10" rx="2" fill="none" stroke="currentColor" stroke-width="1.5"/>
  
  <!-- Heat exchanger fins -->
  <path d="M7 10 L17 10" stroke="currentColor" stroke-width="0.8" opacity="0.6"/>
  <path d="M7 12 L17 12" stroke="currentColor" stroke-width="0.8" opacity="0.6"/>
  <path d="M7 14 L17 14" stroke="currentColor" stroke-width="0.8" opacity="0.6"/>
  <path d="M7 16 L17 16" stroke="currentColor" stroke-width="0.8" opacity="0.6"/>
  
  <!-- Pipes/connections -->
  <path d="M12 8 L12 5 L15 5" stroke="currentColor" stroke-width="1.5" fill="none"/>
  <path d="M9 8 L9 5 L6 5" stroke="currentColor" stroke-width="1.5" fill="none"/>
  
  <!-- Control panel -->
  <rect x="8" y="3" width="8" height="2" rx="0.5" fill="none" stroke="currentColor" stroke-width="1"/>
  <circle cx="10" cy="4" r="0.3" fill="currentColor"/>
  <circle cx="12" cy="4" r="0.3" fill="currentColor"/>
  <circle cx="14" cy="4" r="0.3" fill="currentColor"/>
  
  <!-- Heat waves -->
  <path d="M9 19 Q10 20 11 19 Q12 18 13 19 Q14 20 15 19" stroke="currentColor" stroke-width="1" fill="none" opacity="0.6"/>
  <path d="M8 20 Q9 21 10 20 Q11 19 12 20 Q13 21 14 20 Q15 19 16 20" stroke="currentColor" stroke-width="1" fill="none" opacity="0.4"/>
  
  <!-- Mounting brackets -->
  <rect x="4" y="10" width="1" height="2" fill="currentColor"/>
  <rect x="19" y="10" width="1" height="2" fill="currentColor"/>
</svg>