<svg xmlns="http://www.w3.org/2000/svg" width="24" height="24" viewBox="0 0 24 24" fill="none" stroke="currentColor" stroke-width="2" stroke-linecap="round" stroke-linejoin="round">
  <!-- Forklift body/chassis -->
  <rect x="8" y="12" width="8" height="6" rx="1" fill="none" stroke="currentColor" stroke-width="1.5"/>
  
  <!-- Operator compartment -->
  <rect x="12" y="8" width="4" height="4" rx="0.5" fill="none" stroke="currentColor" stroke-width="1"/>
  <path d="M12 8 L12 6 L16 6 L16 8" stroke="currentColor" stroke-width="1" fill="none"/>
  
  <!-- Wheels -->
  <circle cx="10" cy="19" r="1.5" fill="none" stroke="currentColor" stroke-width="1.5"/>
  <circle cx="14" cy="19" r="1.5" fill="none" stroke="currentColor" stroke-width="1.5"/>
  
  <!-- Fork lift mast (vertical) -->
  <path d="M8 18 L8 4" stroke="currentColor" stroke-width="2"/>
  <path d="M7 18 L7 5" stroke="currentColor" stroke-width="1" opacity="0.6"/>
  
  <!-- Fork carriage -->
  <rect x="5" y="10" width="3" height="2" rx="0.3" fill="none" stroke="currentColor" stroke-width="1"/>
  
  <!-- Forks extending forward -->
  <path d="M2 11 L6 11" stroke="currentColor" stroke-width="2"/>
  <path d="M2 11.8 L6 11.8" stroke="currentColor" stroke-width="2"/>
  
  <!-- Fork tips -->
  <circle cx="2" cy="11" r="0.3" fill="currentColor"/>
  <circle cx="2" cy="11.8" r="0.3" fill="currentColor"/>
  
  <!-- Hydraulic cylinders -->
  <rect x="6.5" y="6" width="0.8" height="6" rx="0.4" fill="none" stroke="currentColor" stroke-width="0.8"/>
  
  <!-- Counterweight at rear -->
  <rect x="14" y="15" width="3" height="3" rx="0.5" fill="currentColor" opacity="0.3"/>
  
  <!-- Safety light on top -->
  <circle cx="13" cy="6" r="0.4" fill="currentColor" opacity="0.7"/>
</svg>