<svg xmlns="http://www.w3.org/2000/svg" width="24" height="24" viewBox="0 0 24 24" fill="none" stroke="currentColor" stroke-width="2" stroke-linecap="round" stroke-linejoin="round">
  <!-- Motor housing -->
  <rect x="6" y="8" width="12" height="8" rx="1" fill="none" stroke="currentColor" stroke-width="1.5"/>
  
  <!-- Motor end caps -->
  <ellipse cx="6" cy="12" rx="1" ry="4" fill="none" stroke="currentColor" stroke-width="1"/>
  <ellipse cx="18" cy="12" rx="1" ry="4" fill="none" stroke="currentColor" stroke-width="1"/>
  
  <!-- Shaft extending from motor -->
  <path d="M18 12 L21 12" stroke="currentColor" stroke-width="2"/>
  <circle cx="21" cy="12" r="0.5" fill="currentColor"/>
  
  <!-- Cooling fins/ribs on housing -->
  <path d="M7 8 L7 16" stroke="currentColor" stroke-width="0.5" opacity="0.6"/>
  <path d="M9 8 L9 16" stroke="currentColor" stroke-width="0.5" opacity="0.6"/>
  <path d="M11 8 L11 16" stroke="currentColor" stroke-width="0.5" opacity="0.6"/>
  <path d="M13 8 L13 16" stroke="currentColor" stroke-width="0.5" opacity="0.6"/>
  <path d="M15 8 L15 16" stroke="currentColor" stroke-width="0.5" opacity="0.6"/>
  <path d="M17 8 L17 16" stroke="currentColor" stroke-width="0.5" opacity="0.6"/>
  
  <!-- Terminal box on top -->
  <rect x="10" y="6" width="4" height="2" rx="0.5" fill="none" stroke="currentColor" stroke-width="1"/>
  
  <!-- Mounting feet -->
  <rect x="7" y="16" width="1" height="1" fill="currentColor"/>
  <rect x="16" y="16" width="1" height="1" fill="currentColor"/>
  <rect x="7" y="7" width="1" height="1" fill="currentColor"/>
  <rect x="16" y="7" width="1" height="1" fill="currentColor"/>
  
  <!-- Power indicator -->
  <circle cx="11" cy="7" r="0.3" fill="currentColor"/>
</svg>