<svg xmlns="http://www.w3.org/2000/svg" width="24" height="24" viewBox="0 0 24 24" fill="none" stroke="currentColor" stroke-width="2" stroke-linecap="round" stroke-linejoin="round">
  <!-- Bin container -->
  <path d="M6 8 L6 18 Q6 20 8 20 L16 20 Q18 20 18 18 L18 8" fill="none" stroke="currentColor" stroke-width="1.5"/>
  
  <!-- Bin rim/top -->
  <path d="M5 8 L19 8" stroke="currentColor" stroke-width="2"/>
  <path d="M5 8 Q5 7 6 7 L18 7 Q19 7 19 8" fill="none" stroke="currentColor" stroke-width="1"/>
  
  <!-- Handles on sides -->
  <path d="M5 10 Q3 10 3 12 Q3 14 5 14" fill="none" stroke="currentColor" stroke-width="1.5"/>
  <path d="M19 10 Q21 10 21 12 Q21 14 19 14" fill="none" stroke="currentColor" stroke-width="1.5"/>
  
  <!-- Peppers in bin -->
  <circle cx="8" cy="12" r="0.8" fill="currentColor" opacity="0.6"/>
  <circle cx="12" cy="11" r="0.8" fill="currentColor" opacity="0.6"/>
  <circle cx="16" cy="13" r="0.8" fill="currentColor" opacity="0.6"/>
  <circle cx="10" cy="15" r="0.8" fill="currentColor" opacity="0.6"/>
  <circle cx="14" cy="16" r="0.8" fill="currentColor" opacity="0.6"/>
  
  <!-- Bottom support -->
  <path d="M8 20 L16 20" stroke="currentColor" stroke-width="1"/>
</svg>