<svg xmlns="http://www.w3.org/2000/svg" width="24" height="24" viewBox="0 0 24 24" fill="none" stroke="currentColor" stroke-width="2" stroke-linecap="round" stroke-linejoin="round">
  <!-- Wagon chassis -->
  <rect x="5" y="14" width="14" height="4" rx="1" fill="none" stroke="currentColor" stroke-width="1.5"/>
  
  <!-- Large wheels -->
  <circle cx="8" cy="19" r="2" fill="none" stroke="currentColor" stroke-width="1.5"/>
  <circle cx="16" cy="19" r="2" fill="none" stroke="currentColor" stroke-width="1.5"/>
  
  <!-- Large spray tank -->
  <ellipse cx="12" cy="10" rx="5" ry="4" fill="none" stroke="currentColor" stroke-width="1.5"/>
  <path d="M7 10 Q7 8 9 8 L15 8 Q17 8 17 10" fill="none" stroke="currentColor" stroke-width="1"/>
  
  <!-- Tank fill indicator -->
  <path d="M8 10 L16 10" stroke="currentColor" stroke-width="0.5" opacity="0.5"/>
  <path d="M9 12 L15 12" stroke="currentColor" stroke-width="0.5" opacity="0.5"/>
  
  <!-- Hose reel on side -->
  <circle cx="18" cy="12" r="1.5" fill="none" stroke="currentColor" stroke-width="1"/>
  <path d="M18 10.5 Q19 11 19 12 Q19 13 18 13.5" stroke="currentColor" stroke-width="0.8" fill="none"/>
  
  <!-- Spray boom/arms -->
  <path d="M5 14 L2 14 L1 12 L2 10 L4 10" stroke="currentColor" stroke-width="1.2" fill="none"/>
  <path d="M19 14 L22 14 L23 12 L22 10 L20 10" stroke="currentColor" stroke-width="1.2" fill="none"/>
  
  <!-- Nozzles -->
  <circle cx="1" cy="12" r="0.4" fill="currentColor"/>
  <circle cx="23" cy="12" r="0.4" fill="currentColor"/>
  <circle cx="2" cy="10" r="0.3" fill="currentColor"/>
  <circle cx="22" cy="10" r="0.3" fill="currentColor"/>
  
  <!-- Tow hitch -->
  <path d="M5 16 L3 16 L2 15 L3 14 L5 14" stroke="currentColor" stroke-width="1"/>
  <circle cx="2" cy="15" r="0.4" fill="currentColor"/>
</svg>